<?xml version="1.0"?>
<svg xmlns="http://www.w3.org/2000/svg" id="&#x421;&#x43B;&#x43E;&#x439;_1" data-name="&#x421;&#x43B;&#x43E;&#x439; 1" viewBox="0 0 192.75589 192.75592">
  <defs>
    <style>.cls-1{fill:#fff;}.cls-1,.cls-10,.cls-11,.cls-12,.cls-13,.cls-14,.cls-15,.cls-16,.cls-17,.cls-18,.cls-19,.cls-2,.cls-20,.cls-21,.cls-22,.cls-23,.cls-24,.cls-25,.cls-26,.cls-27,.cls-28,.cls-29,.cls-3,.cls-30,.cls-31,.cls-32,.cls-33,.cls-34,.cls-35,.cls-36,.cls-37,.cls-38,.cls-39,.cls-4,.cls-40,.cls-41,.cls-42,.cls-43,.cls-44,.cls-45,.cls-46,.cls-47,.cls-48,.cls-49,.cls-5,.cls-50,.cls-51,.cls-52,.cls-53,.cls-54,.cls-55,.cls-56,.cls-57,.cls-58,.cls-59,.cls-6,.cls-60,.cls-61,.cls-62,.cls-63,.cls-64,.cls-65,.cls-66,.cls-67,.cls-68,.cls-69,.cls-7,.cls-70,.cls-71,.cls-72,.cls-73,.cls-74,.cls-75,.cls-76,.cls-77,.cls-78,.cls-79,.cls-8,.cls-80,.cls-81,.cls-82,.cls-83,.cls-84,.cls-85,.cls-86,.cls-87,.cls-9{fill-rule:evenodd;}.cls-2{fill:#5272b0;stroke:#5272b0;stroke-miterlimit:2.6131;stroke-width:1.52421px;}.cls-3{fill:#f2e35a;}.cls-4{fill:#f3e25a;}.cls-5{fill:#f3e05a;}.cls-6{fill:#f2de5a;}.cls-7{fill:#f3dd59;}.cls-8{fill:#f5db59;}.cls-9{fill:#f4d758;}.cls-10{fill:#f3d55a;}.cls-11{fill:#f2d359;}.cls-12{fill:#f1cf5b;}.cls-13{fill:#efcb5c;}.cls-14{fill:#eec95c;}.cls-15{fill:#edc45d;}.cls-16{fill:#ebc05c;}.cls-17{fill:#edbf5d;}.cls-18{fill:#ecbb5d;}.cls-19{fill:#ebb95c;}.cls-20{fill:#eab55c;}.cls-21{fill:#e9b15b;}.cls-22{fill:#e7ad5b;}.cls-23{fill:#e6a95a;}.cls-24{fill:#e5a55a;}.cls-25{fill:#e4a258;}.cls-26{fill:#e3a058;}.cls-27{fill:#e59b54;}.cls-28{fill:#e49954;}.cls-29{fill:#e39653;}.cls-30{fill:#df9254;}.cls-31{fill:#de8d53;}.cls-32{fill:#dc8852;}.cls-33{fill:#dc8552;}.cls-34{fill:#da8052;}.cls-35{fill:#da7e51;}.cls-36{fill:#d97c51;}.cls-37{fill:#dc7850;}.cls-38{fill:#db7650;}.cls-39{fill:#da7250;}.cls-40{fill:#d96e4f;}.cls-41{fill:#d86b4f;}.cls-42{fill:#d5674f;}.cls-43{fill:#d4654e;}.cls-44{fill:#d3604e;}.cls-45{fill:#d25c4d;}.cls-46{fill:#f0e25a;}.cls-47{fill:#ece25b;}.cls-48{fill:#eae15a;}.cls-49{fill:#e6e25e;}.cls-50{fill:#dfdf5f;}.cls-51{fill:#d7db62;}.cls-52{fill:#d2d962;}.cls-53{fill:#cad662;}.cls-54{fill:#c1d265;}.cls-55{fill:#b9ce66;}.cls-56{fill:#afca67;}.cls-57{fill:#a7c768;}.cls-58{fill:#a0c469;}.cls-59{fill:#96c069;}.cls-60{fill:#8ebd69;}.cls-61{fill:#87ba68;}.cls-62{fill:#7eb769;}.cls-63{fill:#73b36d;}.cls-64{fill:#68b16f;}.cls-65{fill:#67b174;}.cls-66{fill:#67b278;}.cls-67{fill:#67b27e;}.cls-68{fill:#66b386;}.cls-69{fill:#66b38c;}.cls-70{fill:#66b492;}.cls-71{fill:#65b698;}.cls-72{fill:#65b69f;}.cls-73{fill:#66b5a3;}.cls-74{fill:#65b5a9;}.cls-75{fill:#64b6af;}.cls-76{fill:#63b6b5;}.cls-77{fill:#62b5bb;}.cls-78{fill:#61b5c0;}.cls-79{fill:#60b5c5;}.cls-80{fill:#5fb5cb;}.cls-81{fill:#5eb5d0;}.cls-82{fill:#5db6d6;}.cls-83{fill:#5db6d9;}.cls-84{fill:#5cb8de;}.cls-85{fill:#5cb6e1;}.cls-86{fill:#5ab6e2;}.cls-87{fill:#59b6e6;}</style>
  </defs>
  <title>book_logo_</title>
  <polygon class="cls-1" points="0 0 192.756 0 192.756 192.756 0 192.756 0 0 0 0"/>
  <path class="cls-2" d="M552.38049,598.722a87.874,87.874,0,1,0-87.87656-87.87656A87.87628,87.87628,0,0,0,552.38049,598.722h0Z" transform="translate(-456 -414.47)"/>
  <path class="cls-1" d="M539.89133,469.30365c1.30734,0.22168,3.77547-.16922,5.04709,0,1.82468,0.22852,3.61189.10233,5.03886,0.891a7.49236,7.49236,0,0,1,1.78355,1.47968c0.10773,0.25964-.06662,12.07956-0.05443,12.16489-6.20276-3.22754-14.2285-2.02423-20.71474-.89264-2.66768.45923-9.62163,1.34335-10.381,1.48849-8.76671,1.57205-17.78059,4.221-27.58308,1.77673,0.19788-.17575.017-0.7356,0.29507-0.89261,5.648-3.14929,13.55443-10.6098,14.82942-10.97009,0.68092-.19958,4.81155.38577,9.19476-0.59555,7.27484-1.6268,22.54451-4.44986,22.54451-4.44986h0Z" transform="translate(-456 -414.47)"/>
  <path class="cls-1" d="M560.66049,469.30365c6.00833-.688,10.39832.81241,13.64485,1.78186,12.76384,3.80469,20.41228,2.61325,23.43515,3.854,1.06017,0.43372,9.99551,8.09238,13.64484,10.68182-0.08531.33109-.30727,1.14349-0.29535,1.18628-8.094,1.19144-13.71629-.42178-21.06285-1.7821-1.29543-.25427-22.02718-3.90192-26.39848-3.854a21.96723,21.96723,0,0,0-9.20154,2.37259c-0.52414-2.95114-.29366-7.00327-0.29366-11.5744,0.16722-.06491,4.43111-2.4375,6.527-2.666h0Z" transform="translate(-456 -414.47)"/>
  <path class="cls-1" d="M561.24953,483.24191a30.07687,30.07687,0,0,1,8.01526,0s26.04868,5.16672,31.14366,5.63614a78.81022,78.81022,0,0,0,10.68153,0c0.96263-.10773,2.67989-0.98166,4.15472-0.58905l3.26353,3.26352c0.00681,0.02917-57.64281.06491-57.84775-.05444-6.2453.03577-7.49651-4.75711-4.74519-6.4726a14.78744,14.78744,0,0,1,5.33423-1.78357h0Z" transform="translate(-456 -414.47)"/>
  <path class="cls-1" d="M539.596,483.54407c2.13193-.18112,14.33252-0.22363,11.56761,5.93121-0.36028.7886-2.11322,1.82468-4.18364,1.78217-0.16385-.00684-61.21532-0.10944-61.21532-0.10944a35.692,35.692,0,0,0,4.58817-3.4563c0.80219-.174,2.48682.37393,3.5589,0.59729a52.82284,52.82284,0,0,0,16.9081.29367c9.32823-1.11291,19.83571-4.31659,28.77618-5.0386h0Z" transform="translate(-456 -414.47)"/>
  <path class="cls-1" d="M483.06091,493.31595s-3.73975,2.68643-2.92532,2.68643H621.03081a1.27818,1.27818,0,0,0,1.463-1.222c0-.80731-0.65567-1.71042-1.463-1.46439H483.06091Z" transform="translate(-456 -414.47)"/>
  <path class="cls-1" d="M608.53653,505.7504c0.03088,0.13831.85521,8.1947,0.85521,8.1947,0.52922-.191,5.06438-6.98459,7.33946-10.63388,3.39-5.41928,14.254-1.31757,10.7005,6.06979-0.07852.157-4.58136,7.27457-6.79181,11.15775-0.14485.25427,7.16542,8.797,8.10425,10.14038,4.17346,6.0032-4.05212,14.94537-10.19337,7.1059-1.45758-1.86066-9.65906-10.74814-9.57375-10.81476,0,0.08362-.07852,6.027-0.07852,7.38229,0.00511,8.94727-12.2726,9.88782-12.38,0,0-.0907-0.01192-27.84955,0-28.60217,0.09554-4.75708,10.06044-8.58557,12.01805,0h0Z" transform="translate(-456 -414.47)"/>
  <path class="cls-1" d="M538.5735,545.35324c0.15533-.0051,22.14679,0,22.24913,0,7.22522-.15024,7.34656,11.70059,0,11.64587-0.25937,0-4.55215.1026-4.49234,0,0.0119,0.03088,0,21.52032,0,21.61758,0.03572,9.00708-12.549,7.96588-12.585,0-0.0051-.13837.07852-21.61758,0-21.61758,0.019,0.07172-5.0882.00677-5.1718,0-6.35982-.11426-6.00974-11.61526,0-11.64587h0Z" transform="translate(-456 -414.47)"/>
  <path class="cls-1" d="M531.4798,551.0679v27.5488c0.02409,8.74258-13.18053,8.56174-13.13263,0V551.0679c-0.03061-7.58041,13.14455-7.52573,13.13263,0h0Z" transform="translate(-456 -414.47)"/>
  <path class="cls-1" d="M582.0119,551.0679v14.00653c0.0238,8.74265-13.18054,8.56857-13.12584,0V551.0679c-0.0377-7.58041,13.13774-7.52573,13.12584,0h0Z" transform="translate(-456 -414.47)"/>
  <path class="cls-1" d="M584.37231,548.73782a2.79071,2.79071,0,1,1,2.7941,2.79437,2.78969,2.78969,0,0,1-2.7941-2.79437h0Zm5.24522,0a2.451,2.451,0,1,0-2.45113,2.45624,2.449,2.449,0,0,0,2.45113-2.45624h0Zm-1.05989,1.56018h-0.45241l-0.89093-1.43884h-0.705V550.298h-0.379v-3.12009H587.491a1.44116,1.44116,0,0,1,.7594.157,0.74537,0.74537,0,0,1,.34981.66895,0.84825,0.84825,0,0,1-.98817.85526l0.94563,1.43884h0Zm-1.46268-1.741c0.43852,0,1.11969.07169,1.11969-.55988,0-.48129-0.4218-0.54111-0.81268-0.54111h-0.89264v1.101H587.095Z" transform="translate(-456 -414.47)"/>
  <path class="cls-1" d="M482.72983,500.71695c0.05475,0,11.17676-.04282,11.56082-0.04282,7.28137-.01193,16.25784,8.35172,10.27872,18.88327,7.0699,6.71982,4.10655,20.76236-6.66537,21.003-0.05981.00681-14.5834,0.01193-15.15543,0.03571-3.48691.15707-5.97916-3.79956-5.974-5.90057,0-.13837.3739-28.0423,0.10944-28.0899,0,0,.25253-5.97946,5.84586-5.8887h0Zm10.50238,28.22284a2.03542,2.03542,0,0,0,0-4.07083h-2.4151c-1.1265,0-1.1265,4.07083,0,4.07083h2.4151Zm0-12.11017a2.03458,2.03458,0,1,0,0-4.06915h-2.4151c-1.1265,0-1.1265,4.06915,0,4.06915h2.4151Z" transform="translate(-456 -414.47)"/>
  <path class="cls-1" d="M529.98112,541.51288a20.579,20.579,0,1,0-20.58122-20.57642,20.5767,20.5767,0,0,0,20.58122,20.57642h0Zm7.77318-20.71475a7.90881,7.90881,0,1,1-7.90611-7.9061,7.90919,7.90919,0,0,1,7.90611,7.9061h0Z" transform="translate(-456 -414.47)"/>
  <path class="cls-1" d="M573.45523,541.51288a20.579,20.579,0,1,0-20.57471-20.57642,20.57816,20.57816,0,0,0,20.57471,20.57642h0Zm7.78-20.71475a7.91221,7.91221,0,1,1-7.91148-7.9061,7.91051,7.91051,0,0,1,7.91148,7.9061h0Z" transform="translate(-456 -414.47)"/>
  <path class="cls-1" d="M575.00862,585.74637a6.11234,6.11234,0,1,0-6.11066-6.1123,6.116,6.116,0,0,0,6.11066,6.1123h0Z" transform="translate(-456 -414.47)"/>
  <path class="cls-3" d="M560.50856,431.5014v15.3584a63.944,63.944,0,0,0-15.251-.11765V431.40927c2.35559-.21175,4.7299-0.32428,7.12289-0.32428a80.24287,80.24287,0,0,1,8.12807.41641h0Z" transform="translate(-456 -414.47)"/>
  <path class="cls-3" d="M567.91122,448.23913l1.79405-15.25436a79.96638,79.96638,0,0,0-15.14011-1.86577l-1.79037,15.22716a64.42409,64.42409,0,0,1,15.13643,1.893h0Z" transform="translate(-456 -414.47)"/>
  <path class="cls-3" d="M553.34483,446.35126L551.6279,431.0918a79.65268,79.65268,0,0,0-15.16905,1.60271l1.71014,15.23906a64.34728,64.34728,0,0,1,14.2115-1.5908c0.32089,0,.64517.0034,0.96434,0.0085h0Z" transform="translate(-456 -414.47)"/>
  <path class="cls-4" d="M569.15395,448.55832l2.101-15.21524a79.56985,79.56985,0,0,0-15.03583-2.16257L554.12152,446.37a64.45591,64.45591,0,0,1,15.03242,2.18835h0Z" transform="translate(-456 -414.47)"/>
  <path class="cls-5" d="M570.39494,448.9064l2.41342-15.16562a79.54992,79.54992,0,0,0-14.925-2.46474L555.47,446.41957a64.35745,64.35745,0,0,1,14.925,2.48683h0Z" transform="translate(-456 -414.47)"/>
  <path class="cls-6" d="M571.64418,449.282l2.72778-15.11092a79.69521,79.69521,0,0,0-14.821-2.7601l-2.72408,15.08711a64.30842,64.30842,0,0,1,14.81726,2.78391h0Z" transform="translate(-456 -414.47)"/>
  <path class="cls-7" d="M572.90048,449.68991l3.03479-15.05112a79.54552,79.54552,0,0,0-14.71834-3.06058l-3.02968,15.03072a64.28881,64.28881,0,0,1,14.71323,3.081h0Z" transform="translate(-456 -414.47)"/>
  <path class="cls-8" d="M574.15341,450.12672l3.35054-14.98792a79.29894,79.29894,0,0,0-14.6109-3.35735l-3.34715,14.9641a64.31656,64.31656,0,0,1,14.60751,3.38116h0Z" transform="translate(-456 -414.47)"/>
  <path class="cls-9" d="M575.408,450.59274l3.668-14.91449a79.59054,79.59054,0,0,0-14.50856-3.65782l-3.65784,14.889a64.27345,64.27345,0,0,1,14.49837,3.68333h0Z" transform="translate(-456 -414.47)"/>
  <path class="cls-10" d="M576.66064,451.088l3.97362-14.83455a79.5724,79.5724,0,0,0-14.39575-3.95659l-3.97362,14.807a64.18518,64.18518,0,0,1,14.39575,3.9841h0Z" transform="translate(-456 -414.47)"/>
  <path class="cls-11" d="M577.90845,451.6084l4.29111-14.74214a79.40424,79.40424,0,0,0-14.29343-4.25706l-4.28258,14.72a64.11977,64.11977,0,0,1,14.2849,4.27917h0Z" transform="translate(-456 -414.47)"/>
  <path class="cls-12" d="M579.14777,452.16144l4.60149-14.65343a79.164,79.164,0,0,0-14.1823-4.55215l-4.59326,14.62592a64.28775,64.28775,0,0,1,14.17407,4.57967h0Z" transform="translate(-456 -414.47)"/>
  <path class="cls-13" d="M580.3868,452.74509l4.91074-14.55449a79.47748,79.47748,0,0,0-14.08507-4.856l-4.89714,14.529a64.28024,64.28024,0,0,1,14.07147,4.88155h0Z" transform="translate(-456 -414.47)"/>
  <path class="cls-14" d="M581.60909,453.35113l5.21432-14.44705a79.36913,79.36913,0,0,0-13.96912-5.15112l-5.20584,14.41956a64.18546,64.18546,0,0,1,13.96063,5.17862h0Z" transform="translate(-456 -414.47)"/>
  <path class="cls-15" d="M582.8277,453.9895l5.51991-14.33424a79.32644,79.32644,0,0,0-13.86652-5.45187l-5.5114,14.30533a64.17447,64.17447,0,0,1,13.858,5.48079h0Z" transform="translate(-456 -414.47)"/>
  <path class="cls-16" d="M584.02591,454.65167l5.82718-14.21461a79.29452,79.29452,0,0,0-13.7625-5.75066l-5.81357,14.186a64.13139,64.13139,0,0,1,13.74889,5.77928h0Z" transform="translate(-456 -414.47)"/>
  <path class="cls-17" d="M585.21053,455.33624l6.12593-14.08678a79.28431,79.28431,0,0,0-13.64995-6.05084l-6.114,14.063a63.97,63.97,0,0,1,13.63806,6.07465h0Z" transform="translate(-456 -414.47)"/>
  <path class="cls-18" d="M586.38489,456.04971l6.41934-13.95552a79.3319,79.3319,0,0,0-13.54393-6.34932l-6.40771,13.92972a64.19658,64.19658,0,0,1,13.5323,6.37512h0Z" transform="translate(-456 -414.47)"/>
  <path class="cls-19" d="M587.5369,456.78531l6.70961-13.81891a79.23433,79.23433,0,0,0-13.4416-6.64809l-6.69429,13.79311a64.14723,64.14723,0,0,1,13.42628,6.67389h0Z" transform="translate(-456 -414.47)"/>
  <path class="cls-20" d="M588.6736,457.54671l6.99477-13.68059a79.20331,79.20331,0,0,0-13.33049-6.94545l-6.98457,13.65167a64.25355,64.25355,0,0,1,13.3203,6.97437h0Z" transform="translate(-456 -414.47)"/>
  <path class="cls-21" d="M589.78647,458.32509l7.27654-13.53232a79.38306,79.38306,0,0,0-13.22134-7.24564L576.577,451.05365a64.19864,64.19864,0,0,1,13.20944,7.27144h0Z" transform="translate(-456 -414.47)"/>
  <path class="cls-22" d="M590.879,459.12047l7.55632-13.37524a79.48017,79.48017,0,0,0-13.11734-7.54442L577.77524,451.552a64.13073,64.13073,0,0,1,13.10371,7.56848h0Z" transform="translate(-456 -414.47)"/>
  <path class="cls-23" d="M591.951,459.94142L599.7769,446.72a79.36772,79.36772,0,0,0-13.00648-7.84148l-7.814,13.19414a64.13871,64.13871,0,0,1,12.9946,7.86871h0Z" transform="translate(-456 -414.47)"/>
  <path class="cls-24" d="M592.99558,460.77592l8.09406-13.06262a79.35762,79.35762,0,0,0-12.90247-8.14l-8.07675,13.03882a64.1224,64.1224,0,0,1,12.88516,8.16377h0Z" transform="translate(-456 -414.47)"/>
  <path class="cls-25" d="M594.17848,461.76437l8.41464-12.85626a79.347,79.347,0,0,0-12.61191-8.40472l-8.40131,12.83414a64.18506,64.18506,0,0,1,12.59857,8.42685h0Z" transform="translate(-456 -414.47)"/>
  <path class="cls-26" d="M595.356,462.79872l8.73242-12.6411a79.41191,79.41191,0,0,0-12.327-8.6658l-8.7151,12.61729a64.172,64.172,0,0,1,12.30972,8.68961h0Z" transform="translate(-456 -414.47)"/>
  <path class="cls-27" d="M596.52357,463.87388l9.04651-12.41573a79.48581,79.48581,0,0,0-12.03876-8.932l-9.02921,12.39365a64.21932,64.21932,0,0,1,12.02145,8.95406h0Z" transform="translate(-456 -414.47)"/>
  <path class="cls-28" d="M597.67755,464.99019l9.3586-12.18019a79.48224,79.48224,0,0,0-11.74989-9.18793l-9.34016,12.15637a64.19769,64.19769,0,0,1,11.73146,9.21175h0Z" transform="translate(-456 -414.47)"/>
  <path class="cls-29" d="M598.81766,466.15436l9.66614-11.93781a79.39191,79.39191,0,0,0-11.46019-9.451l-9.64716,11.914a64.2604,64.2604,0,0,1,11.44121,9.47478h0Z" transform="translate(-456 -414.47)"/>
  <path class="cls-30" d="M599.939,467.356l9.97313-11.68185a79.30259,79.30259,0,0,0-11.17473-9.71376l-9.95613,11.65974A64.22821,64.22821,0,0,1,599.939,467.356h0Z" transform="translate(-456 -414.47)"/>
  <path class="cls-31" d="M601.03662,468.59527l10.27361-11.41566a79.45538,79.45538,0,0,0-10.88646-9.97484l-10.2532,11.395a64.18915,64.18915,0,0,1,10.86606,9.99553h0Z" transform="translate(-456 -414.47)"/>
  <path class="cls-32" d="M602.11349,469.87543L612.68417,458.733a79.4946,79.4946,0,0,0-10.60129-10.23788l-10.55028,11.122a64.2083,64.2083,0,0,1,10.58089,10.25832h0Z" transform="translate(-456 -414.47)"/>
  <path class="cls-33" d="M603.16174,471.18954L614.0173,460.3289A79.46632,79.46632,0,0,0,603.7077,449.835l-10.83855,10.83858a64.22137,64.22137,0,0,1,10.29259,10.51593h0Z" transform="translate(-456 -414.47)"/>
  <path class="cls-34" d="M604.17883,472.538l11.14241-10.57239a79.52173,79.52173,0,0,0-10.02614-10.75491l-11.12,10.552A64.21291,64.21291,0,0,1,604.17883,472.538h0Z" transform="translate(-456 -414.47)"/>
  <path class="cls-35" d="M605.16385,473.91562l11.412-10.27557a79.49529,79.49529,0,0,0-9.73756-11.016L595.445,462.879a64.36581,64.36581,0,0,1,9.71886,11.03665h0Z" transform="translate(-456 -414.47)"/>
  <path class="cls-36" d="M606.1129,475.32187l11.68355-9.97139a79.71009,79.71009,0,0,0-9.45438-11.27567l-11.65636,9.94931a64.295,64.295,0,0,1,9.42719,11.29774h0Z" transform="translate(-456 -414.47)"/>
  <path class="cls-37" d="M607.02933,476.75226l11.93785-9.65565a79.76634,79.76634,0,0,0-9.16754-11.54012l-11.91742,9.64034a64.52562,64.52562,0,0,1,9.14711,11.55544h0Z" transform="translate(-456 -414.47)"/>
  <path class="cls-38" d="M607.90155,478.20676l12.18871-9.3436a79.80991,79.80991,0,0,0-8.88234-11.79781l-12.1615,9.32628a64.50861,64.50861,0,0,1,8.85513,11.81512h0Z" transform="translate(-456 -414.47)"/>
  <path class="cls-39" d="M608.73976,479.67963l12.42595-9.02069a79.96144,79.96144,0,0,0-8.59747-12.05919l-12.40382,9.0071a64.58208,64.58208,0,0,1,8.57535,12.07278h0Z" transform="translate(-456 -414.47)"/>
  <path class="cls-40" d="M609.55728,481.14938l12.6292-8.67969a80.07384,80.07384,0,0,0-8.3109-12.31487l-12.63091,8.67943a64.6184,64.6184,0,0,1,7.99683,11.77737c0.09724,0.18423.20494,0.3634,0.31578,0.53775h0Z" transform="translate(-456 -414.47)"/>
  <path class="cls-41" d="M610.60864,482.455l12.50987-8.12805a8.181,8.181,0,0,0-.38921-0.85181h0a80.06113,80.06113,0,0,0-7.59741-11.7502L602.279,470.07837a64.63862,64.63862,0,0,1,6.96246,10.53326,7.688,7.688,0,0,0,1.36714,1.84338h0Z" transform="translate(-456 -414.47)"/>
  <path class="cls-42" d="M612.0101,483.55261l11.58463-7.11951a7.63852,7.63852,0,0,0-.86542-2.95795h0a80.33647,80.33647,0,0,0-6.39581-10.1662l-13.06091,8.02063a64.75791,64.75791,0,0,1,5.96892,9.282,7.6435,7.6435,0,0,0,2.7686,2.941h0Z" transform="translate(-456 -414.47)"/>
  <path class="cls-43" d="M613.91159,484.38541l9.48161-5.49951a7.6235,7.6235,0,0,0-.66389-5.41074h0a80.19807,80.19807,0,0,0-5.252-8.57881L604.21654,472.591a64.808,64.808,0,0,1,5.025,8.02063,7.64022,7.64022,0,0,0,4.67009,3.77377h0Z" transform="translate(-456 -414.47)"/>
  <path class="cls-44" d="M617.04358,484.60565l4.73668-2.59283a7.6327,7.6327,0,0,0,.94905-8.53766h0a80.426,80.426,0,0,0-4.15814-6.98289l-13.4501,7.36183a65.13626,65.13626,0,0,1,4.12044,6.75754,7.64373,7.64373,0,0,0,7.80208,3.994h0Z" transform="translate(-456 -414.47)"/>
  <path class="cls-45" d="M619.60553,468.08987l-13.62585,7.0274q1.75648,2.64977,3.26183,5.49435a7.62972,7.62972,0,0,0,13.48781-7.13647h0q-1.46734-2.7702-3.12378-5.38528h0Z" transform="translate(-456 -414.47)"/>
  <path class="cls-46" d="M552.08682,446.34616l-2.00722-15.22375a79.47785,79.47785,0,0,0-15.08029,1.88448l2.00238,15.203a64.26107,64.26107,0,0,1,15.08513-1.86377h0Z" transform="translate(-456 -414.47)"/>
  <path class="cls-47" d="M550.82541,446.36487l-2.2955-15.18265a79.52949,79.52949,0,0,0-14.99159,2.166l2.29408,15.16054a64.23634,64.23634,0,0,1,14.993-2.14384h0Z" transform="translate(-456 -414.47)"/>
  <path class="cls-48" d="M549.55746,446.40767l-2.58775-15.13843a79.44087,79.44087,0,0,0-14.90088,2.45282l2.58408,15.11264a64.2426,64.2426,0,0,1,14.90456-2.427h0Z" transform="translate(-456 -414.47)"/>
  <path class="cls-49" d="M548.29265,446.476l-2.88652-15.08032a79.53058,79.53058,0,0,0-14.81216,2.73091l2.88115,15.05991a64.1959,64.1959,0,0,1,14.81754-2.71049h0Z" transform="translate(-456 -414.47)"/>
  <path class="cls-50" d="M547.01932,446.56981l-3.17819-15.0222a79.38087,79.38087,0,0,0-14.71834,3.01436l3.17453,14.99811a64.17856,64.17856,0,0,1,14.722-2.99026h0Z" transform="translate(-456 -414.47)"/>
  <path class="cls-51" d="M545.74771,446.68744l-3.47357-14.95389a79.37043,79.37043,0,0,0-14.62451,3.29443l3.46506,14.9332a64.2202,64.2202,0,0,1,14.633-3.27374h0Z" transform="translate(-456 -414.47)"/>
  <path class="cls-52" d="M544.47948,446.83258l-3.76384-14.88388a79.43711,79.43711,0,0,0-14.54088,3.57422l3.76213,14.86856a64.17356,64.17356,0,0,1,14.54259-3.5589h0Z" transform="translate(-456 -414.47)"/>
  <path class="cls-53" d="M543.21127,447.00322l-4.05553-14.80875a79.41775,79.41775,0,0,0-14.44876,3.85909l4.05042,14.79005a64.20372,64.20372,0,0,1,14.45387-3.84039h0Z" transform="translate(-456 -414.47)"/>
  <path class="cls-54" d="M541.95154,447.198L537.599,432.47255a79.48026,79.48026,0,0,0-14.358,4.14284l4.3438,14.70274a64.27854,64.27854,0,0,1,14.36684-4.12016h0Z" transform="translate(-456 -414.47)"/>
  <path class="cls-55" d="M540.69183,447.41623l-4.64258-14.6364a79.59418,79.59418,0,0,0-14.26791,4.426l4.63606,14.6143a64.29919,64.29919,0,0,1,14.27443-4.40392h0Z" transform="translate(-456 -414.47)"/>
  <path class="cls-56" d="M539.44232,447.65689l-4.93115-14.53719a79.58732,79.58732,0,0,0-14.17549,4.7058L525.26,452.34569a64.206,64.206,0,0,1,14.1823-4.6888h0Z" transform="translate(-456 -414.47)"/>
  <path class="cls-57" d="M538.19818,447.92676l-5.21631-14.44025a79.48128,79.48128,0,0,0-14.08337,4.98755l5.20952,14.42126a64.30808,64.30808,0,0,1,14.09016-4.96857h0Z" transform="translate(-456 -414.47)"/>
  <path class="cls-58" d="M536.96738,448.21844l-5.49779-14.33763a79.44987,79.44987,0,0,0-13.99635,5.27243l5.4944,14.31383a64.25545,64.25545,0,0,1,13.99974-5.24863h0Z" transform="translate(-456 -414.47)"/>
  <path class="cls-59" d="M535.75218,448.53082l-5.783-14.22311a79.58906,79.58906,0,0,0-13.9093,5.55562l5.77444,14.203a64.30716,64.30716,0,0,1,13.91783-5.53549h0Z" transform="translate(-456 -414.47)"/>
  <path class="cls-60" d="M534.54207,448.86729l-6.063-14.10747a79.40821,79.40821,0,0,0-13.81183,5.83768l6.05255,14.08336a64.33686,64.33686,0,0,1,13.8223-5.81357h0Z" transform="translate(-456 -414.47)"/>
  <path class="cls-61" d="M533.35066,449.22389l-6.3394-13.98445a79.6007,79.6007,0,0,0-13.72166,6.11575l6.3241,13.96063a64.34833,64.34833,0,0,1,13.737-6.09193h0Z" transform="translate(-456 -414.47)"/>
  <path class="cls-62" d="M532.17116,449.60118l-6.61066-13.858a79.659,79.659,0,0,0-13.63295,6.39383l6.60046,13.841a64.38773,64.38773,0,0,1,13.64314-6.37682h0Z" transform="translate(-456 -414.47)"/>
  <path class="cls-63" d="M531.01038,449.99888l-6.87514-13.73018a79.52752,79.52752,0,0,0-13.54395,6.67729l6.86494,13.71147a64.3415,64.3415,0,0,1,13.55414-6.65858h0Z" transform="translate(-456 -414.47)"/>
  <path class="cls-64" d="M529.86859,450.4153l-7.14331-13.59525a79.667,79.667,0,0,0-13.45352,6.96075l7.13141,13.57283a64.31282,64.31282,0,0,1,13.46542-6.93834h0Z" transform="translate(-456 -414.47)"/>
  <path class="cls-65" d="M528.7438,450.849l-7.40439-13.45891A79.61867,79.61867,0,0,0,507.978,444.634l7.38737,13.43649A64.42076,64.42076,0,0,1,528.7438,450.849h0Z" transform="translate(-456 -414.47)"/>
  <path class="cls-66" d="M527.636,451.29771l-7.66034-13.31517a79.59918,79.59918,0,0,0-13.271,7.52711l7.64505,13.28966a64.33781,64.33781,0,0,1,13.28625-7.5016h0Z" transform="translate(-456 -414.47)"/>
  <path class="cls-67" d="M526.05711,451.98059l-8.00021-13.10713a79.75527,79.75527,0,0,0-12.979,7.80548l7.98492,13.0901a64.44852,64.44852,0,0,1,12.99428-7.78845h0Z" transform="translate(-456 -414.47)"/>
  <path class="cls-68" d="M524.47993,452.71617l-8.33812-12.89537a79.57979,79.57979,0,0,0-12.68875,8.09235l8.32765,12.87128a64.41458,64.41458,0,0,1,12.69922-8.06825h0Z" transform="translate(-456 -414.47)"/>
  <path class="cls-69" d="M522.91293,453.49626l-8.6777-12.66661a79.7644,79.7644,0,0,0-12.39166,8.37553l8.66211,12.6496a64.37242,64.37242,0,0,1,12.40726-8.35852h0Z" transform="translate(-456 -414.47)"/>
  <path class="cls-70" d="M521.34962,454.32739l-9.01048-12.42766a79.59762,79.59762,0,0,0-12.10025,8.659l8.99686,12.40724a64.42223,64.42223,0,0,1,12.11388-8.63858h0Z" transform="translate(-456 -414.47)"/>
  <path class="cls-71" d="M519.80644,455.20471l-9.345-12.1785a79.70453,79.70453,0,0,0-11.80659,8.94417l9.33,12.16319a64.38121,64.38121,0,0,1,11.82161-8.92886h0Z" transform="translate(-456 -414.47)"/>
  <path class="cls-72" d="M518.27885,456.13333l-9.671-11.91911a79.69774,79.69774,0,0,0-11.52141,9.22563l9.66243,11.90381a64.45967,64.45967,0,0,1,11.52994-9.21033h0Z" transform="translate(-456 -414.47)"/>
  <path class="cls-73" d="M516.77167,457.10449l-9.99524-11.64415a79.75067,79.75067,0,0,0-11.22632,9.50711L505.5354,466.6a64.44451,64.44451,0,0,1,11.23627-9.4955h0Z" transform="translate(-456 -414.47)"/>
  <path class="cls-74" d="M515.292,458.12186l-10.31813-11.3644a79.74035,79.74035,0,0,0-10.93265,9.794l10.30618,11.34906a64.4557,64.4557,0,0,1,10.9446-9.77866h0Z" transform="translate(-456 -414.47)"/>
  <path class="cls-75" d="M513.83923,459.1783L503.209,448.10251a79.64559,79.64559,0,0,0-10.6373,10.08084l10.61319,11.05881a64.35156,64.35156,0,0,1,10.6543-10.06386h0Z" transform="translate(-456 -414.47)"/>
  <path class="cls-76" d="M512.414,460.27248l-10.92728-10.77193a79.74128,79.74128,0,0,0-10.34531,10.36234l10.91537,10.76A64.44989,64.44989,0,0,1,512.414,460.27248h0Z" transform="translate(-456 -414.47)"/>
  <path class="cls-77" d="M511.02983,461.40747l-11.22777-10.46635a79.64689,79.64689,0,0,0-10.05023,10.6458l11.21075,10.45279a64.53135,64.53135,0,0,1,10.06725-10.63223h0Z" transform="translate(-456 -414.47)"/>
  <path class="cls-78" d="M509.68138,462.57167L498.165,452.42081a79.88934,79.88934,0,0,0-9.76135,10.931l11.499,10.13869a64.45543,64.45543,0,0,1,9.77867-10.91878h0Z" transform="translate(-456 -414.47)"/>
  <path class="cls-79" d="M508.37065,463.76819l-11.79131-9.82831a79.8759,79.8759,0,0,0-9.46628,11.21417l11.774,9.813a64.5156,64.5156,0,0,1,9.4836-11.19882h0Z" transform="translate(-456 -414.47)"/>
  <path class="cls-80" d="M507.10411,464.98846l-12.06255-9.49858a79.86859,79.86859,0,0,0-9.17264,11.50272l12.04184,9.48158a64.53047,64.53047,0,0,1,9.19334-11.48572h0Z" transform="translate(-456 -414.47)"/>
  <path class="cls-81" d="M505.88351,466.2312L493.565,457.07048a79.75067,79.75067,0,0,0-8.88239,11.78249l12.29443,9.1488a64.49622,64.49622,0,0,1,8.90646-11.77057h0Z" transform="translate(-456 -414.47)"/>
  <path class="cls-82" d="M504.70428,467.49771l-12.55917-8.82112a79.85182,79.85182,0,0,0-8.59235,12.06255l12.54016,8.81064a64.47415,64.47415,0,0,1,8.61136-12.05206h0Z" transform="translate(-456 -414.47)"/>
  <path class="cls-83" d="M503.58093,468.77783L490.7811,460.298a79.83224,79.83224,0,0,0-8.2851,12.305l-0.02042.04279,12.67,8.39423a7.60235,7.60235,0,0,0,.74777-1.13327,64.3907,64.3907,0,0,1,7.68756-11.12885h0Z" transform="translate(-456 -414.47)"/>
  <path class="cls-84" d="M502.50232,470.06988l-13.02176-8.13316a79.76209,79.76209,0,0,0-6.98456,10.66621,7.64089,7.64089,0,0,0-.77133,2.12509l12.12888,7.57675a7.60832,7.60832,0,0,0,2.03983-2.3981,64.48619,64.48619,0,0,1,6.60895-9.83679h0Z" transform="translate(-456 -414.47)"/>
  <path class="cls-85" d="M501.47137,471.3724l-13.23862-7.79019a79.89484,79.89484,0,0,0-5.73676,9.02072,7.60789,7.60789,0,0,0-.87393,4.54874l10.47855,6.162a7.6033,7.6033,0,0,0,3.79276-3.407,64.39547,64.39547,0,0,1,5.578-8.53427h0Z" transform="translate(-456 -414.47)"/>
  <path class="cls-86" d="M500.48807,472.67462l-13.43283-7.437a80.30109,80.30109,0,0,0-4.55923,7.36528,7.63182,7.63182,0,0,0,.09723,7.47437l6.87711,3.80978a7.63614,7.63614,0,0,0,6.423-3.98041,64.43347,64.43347,0,0,1,4.5947-7.23206h0Z" transform="translate(-456 -414.47)"/>
  <path class="cls-87" d="M499.5614,473.97854l-13.62613-7.0903q-1.82538,2.7702-3.43927,5.71469a7.62945,7.62945,0,0,0,13.39737,7.30374,64.83949,64.83949,0,0,1,3.668-5.92813h0Z" transform="translate(-456 -414.47)"/>
</svg>
